# xmcd
#
# Track frame offsets: 
#        150
#        10408
#        19569
#        29716
#        43280
#        58290
#        70919
#        82429
#        93600
#        105020
#
# Disc length: 1542 seconds
#
# Revision: 0
# Processed by: cddbd v1.5.2PL0 Copyright (c) Steve Scherf et al.
# Submitted via: ExactAudioCopy v0.99pb4
#
DISCID=8906040a
DTITLE=Various Artist - Super Hits - Country - 1950'd
DYEAR=1978
DGENRE=Classic Country
TTITLE0=Jimmy Dickens - Hillbilly Fever
TTITLE1=Benny Barnes - A Poor Man's Riches
TTITLE2=George Jones - Why Baby Why
TTITLE3=Skeeter Davis - I Forgot More Than You'll Ever Know
TTITLE4=Jack Cardwell - The Death of Hank Williams
TTITLE5=Bobby Helms - Fraulein
TTITLE6=Artie Duff - Ya'll Come
TTITLE7=Bonnie Lou - Tennessee Wig Walk
TTITLE8=Warner Mack - Is It Wrong
TTITLE9=The Carlisles - No Help Wanted
EXTD=
EXTT0=
EXTT1=
EXTT2=
EXTT3=
EXTT4=
EXTT5=
EXTT6=
EXTT7=
EXTT8=
EXTT9=
PLAYORDER=
